<svg xmlns="http://www.w3.org/2000/svg" viewBox="0 0 64 64">
  <rect width="64" height="64" rx="14" fill="#ffffff"/>
  <path d="M12 17h19a3 3 0 0 1 3 3v3a3 3 0 0 1-3 3H12z" fill="#E8620A"/>
  <path d="M31 20a3 3 0 0 1 3-3h6v16h-9z" fill="#1A1A1A"/>
  <rect x="44" y="17" width="8" height="8" rx="2" fill="#1A1A1A"/>
  <rect x="12" y="39" width="8" height="8" rx="2" fill="#1A1A1A"/>
  <path d="M30 38a3 3 0 0 1 3 3v6H20a3 3 0 0 1-3-3v-3a3 3 0 0 1 3-3z" fill="#1A1A1A"/>
  <path d="M33 38h19v9H33z" fill="#E8620A"/>
  <path d="M33 29h7.5l8.5 9H41.5z" fill="#E8620A"/>
</svg>
